# xmcd
#
# Track frame offsets:
#	150
#	17495
#	30304
#	45474
#	61361
#	78669
#	101102
#	118918
#	136865
#	152572
#	168039
#	185295
#	196998
#	210253
#	229076
#	242998
#
# Disc length: 3407 seconds
# Revision: 0
# Processed by: cddbd v1.5.2PL0 Copyright (c) Steve Scherf et al.
# Submitted via: dBpowerAMP V12.0
#
DISCID=c60d4d10
DTITLE=Various Artist - Ultimate Heartland Country Collection Disc 4
DYEAR=1900
DGENRE=Country
TTITLE0=Sara Storer - Back Out Back
TTITLE1=Adam Harvey - The House That Jack Built
TTITLE2=Markus Meier - Red Dirt Country
TTITLE3=Felicity Urquhart - Throw Your Arms Around Me
TTITLE4=Luke Austen - She's So You
TTITLE5=Kevin Bennet and teh Flood - Up Above My Head
TTITLE6=Anne Kirkpatrick - Out Of The Blue
TTITLE7=Warren H. Williams - Family
TTITLE8=Samantha McClymont - Cookin' In My Kitchen
TTITLE9=Talia Wittmann - The Reckless Side of Me
TTITLE10=Rob Black - We Have Kids
TTITLE11=Steve Passfiel - Stump Jumpin'
TTITLE12=Donna Boyd - A Good Day
TTITLE13=Jason Lee - Back To You
TTITLE14=Paul Costa - What Else Could Go Right
TTITLE15=Travis Sinclair - Shakin' All Over
EXTD=
EXTT0=
EXTT1=
EXTT2=
EXTT3=
EXTT4=
EXTT5=
EXTT6=
EXTT7=
EXTT8=
EXTT9=
EXTT10=
EXTT11=
EXTT12=
EXTT13=
EXTT14=
EXTT15=
PLAYORDER=
